# xmcd
#
# Track frame offsets:
#   150
#   20424
#   42788
#   62463
#   77892
#   96905
#   112278
#   131058
#   144899
#   159280
#   176840
#
# Disc length: 2589 seconds
#
# Revision: 0
# Processed by: cddbd v1.5.1PL2 Copyright (c) Steve Scherf et al.
# Submitted via: uFREEDB ActiveX Control 1.5
#
DISCID=8f0a1b0b
DTITLE=Rose Nascimento - Mais Firme do que Nunca
DYEAR=1900
DGENRE=Gospel and Religious
TTITLE0=01 
TTITLE1=02
TTITLE2=03
TTITLE3=04
TTITLE4=05
TTITLE5=06
TTITLE6=07
TTITLE7=08
TTITLE8=09
TTITLE9=10
TTITLE10=11
EXTD=
EXTT0=
EXTT1=
EXTT2=
EXTT3=
EXTT4=
EXTT5=
EXTT6=
EXTT7=
EXTT8=
EXTT9=
EXTT10=
PLAYORDER=
